EBGaramond12-Regular.sfdir

StartChar: uniA733
Encoding: 42803 42803 3075
Width: 598
VWidth: 0
Flags: HW
AnchorPoint: "cedilla" 303 8 basechar 0
AnchorPoint: "ogonek" 341 18 basechar 0
AnchorPoint: "below_accent" 178 -100 basechar 0
AnchorPoint: "top_accent" 191 550 basechar 0
LayerCount: 3
Fore
SplineSet
115 87 m 0
 115 49 145 32 164 32 c 0
 190 32 208 45 224 59 c 0
 231 65 235 74 236 99 c 2
 238 148 l 2
 239 163 237 169 229 169 c 0
 226 169 220 168 215 166 c 0
 138 140 115 110 115 87 c 0
542 32 m 0
 560 32 571 36 582 46 c 0
 588 52 598 45 598 37 c 0
 598 29 556 -14 518 -14 c 0
 461 -14 452 38 444 38 c 0
 431 38 403 -13 321 -14 c 0
 320.47303814 -14 319.945415509 -13.993392295 319.417236111 -13.9802627878 c 0
 318.944266115 -13.9933719246 318.471824738 -14.0000011474 318 -14 c 0
 292.697511414 -14 276.853429899 -3.75339233923 266.356608332 7.64281674706 c 1
 256.095111923 16.1162121381 247.514789971 26.4816349502 241.938611597 37.6321107517 c 1
 228.073393931 33.0382633021 198.911211485 -13.0498632754 121 -14 c 0
 80 -14 35 26 35 65 c 0
 35 107 59 135 108 155 c 2
 210 197 l 2
 236 208 237 210 238 237 c 2
 240 301 l 2
 241 335 217 365 181 365 c 0
 157 365 128 347 120 333 c 0
 117 328 116 321 116 314 c 0
 116 309 117 305 117 300 c 0
 117 286 61 265 48 265 c 0
 42 265 40 271 40 274 c 0
 40 295 55 321 80 343 c 0
 111 371 176 414 229 414 c 0
 263.184554714 414 291.549995987 392.839587488 304.092418893 362.44649526 c 1
 338.241744167 387.41923105 387.329816588 414 429 414 c 0
 476 414 512 374 511 325 c 2
 506 109 l 2
 506 70 513 32 542 32 c 0
315 87 m 0
 315 49 345 32 364 32 c 0
 390 32 408 45 424 59 c 0
 431 65 435 74 436 99 c 2
 438 148 l 2
 439 163 437 169 429 169 c 0
 426 169 420 168 415 166 c 0
 338 140 315 110 315 87 c 0
310.75123419 334.195656017 m 1
 310.978221195 331.171805202 311.06334612 328.10395989 311 325 c 2
 307.055841666 154.612359953 l 2
 307.369523151 154.741906576 307.684242506 154.87111939 308 155 c 2
 410 197 l 2
 436 208 437 210 438 237 c 2
 440 301 l 2
 441 335 417 365 381 365 c 0
 357.678042376 365 320.191665289 348.002696644 310.75123419 334.195656017 c 1
EndSplineSet
EndChar

StartChar: uniA734
Encoding: 42804 42804 3076
Width: 1153
VWidth: 0
Flags: HW
AnchorPoint: "cedilla" 124 8 basechar 0
AnchorPoint: "ogonek" 508 18 basechar 0
AnchorPoint: "below_accent" 334 -100 basechar 0
AnchorPoint: "top_accent" 363 710 basechar 0
LayerCount: 3
Fore
SplineSet
765 625 m 0
 617 625 532 490 532 350 c 0
 532 179 637 25 785 25 c 0
 935 25 1011 134 1011 305 c 0
 1011 495 925 625 765 625 c 0
435 320 m 0
 435 501 556 664 780 664 c 0
 954 664 1108 532 1108 335 c 0
 1108 155 991 -14 772 -14 c 0
 595 -14 435 130 435 320 c 0
451 233 m 0
 448 243 442 244 424 244 c 2
 233 244 l 2
 227 244 221 240 216 226 c 0
 207 200 176 100 176 87 c 0
 176 58 202 38 234 30 c 0
 257 24 267 19 267 10 c 0
 267 2 255 -1 238 -1 c 0
 220 -1 184 1 147 1 c 0
 103 1 60 -5 27 -5 c 0
 10 -5 -2 0 -2 8 c 0
 -2 17 9 24 31 31 c 0
 65 41 95 58 117 108 c 0
 192 279 237 393 304 578 c 0
 319 620 316 635 318 636 c 0
 330 640 342 643 354 651 c 0
 368 660 370 686 375 686 c 0
 380 686 382 671 385 662 c 0
 449 459 530 223 563 128 c 0
 451 233 l 0
529 1 m 0
333 542 m 2
 243 302 l 2
 242 299 241 296 241 294 c 0
 241 287 249 287 262 287 c 2
 417 287 l 2
 427 287 431 287 431 292 c 0
 431 294 430 298 429 302 c 2
 350 541 l 2
 346 553 344 559 341 559 c 0
 339 559 337 553 333 542 c 2
EndSplineSet
EndChar

StartChar: uniA736
Encoding: 42806 42806 3078
Width: 968
VWidth: 0
Flags: HW
AnchorPoint: "cedilla" 124 8 basechar 0
AnchorPoint: "below_accent" 334 -100 basechar 0
AnchorPoint: "top_accent" 363 710 basechar 0
LayerCount: 3
Fore
SplineSet
451 233 m 1
 448.777976404 243.201108329 442 244 424 244 c 2
 233 244 l 2
 227 244 221 240 216 226 c 0
 207 200 176 100 176 87 c 0
 176 58 202 38 234 30 c 0
 257 24 267 19 267 10 c 0
 267 2 255 -1 238 -1 c 0
 220 -1 184 1 147 1 c 0
 103 1 60 -5 27 -5 c 0
 10 -5 -2 0 -2 8 c 0
 -2 17 9 24 31 31 c 0
 65 41 95 58 117 108 c 0
 192 279 237 393 304 578 c 0
 319 620 316 635 318 636 c 0
 330 640 342 643 354 651 c 0
 368 660 370 686 375 686 c 0
 380 686 382 671 385 662 c 0
 449 459 519.196341025 218.527561882 563 128 c 0
 593 66 625 36 671 36 c 0
 798.631835938 36 822 140 822 296 c 0
 822 340 820 434 818 511 c 0
 817 562 805 612 777 620 c 0
 763 624 744 631 744 640 c 0
 744 648 756 651 773 651 c 0
 803 651 819 650 848 650 c 24
 880 650 906 653 929 653 c 0
 946 653 958 650 958 642 c 0
 958 633 948 627 925 622 c 0
 890 615 877 587 875 547 c 0
 868 432 868 342 865 250 c 0
 860 95 804 -12 657 -12 c 1
 525 -12 472.864414484 125.358886917 451 233 c 1
333 542 m 2
 243 302 l 2
 242 299 241 296 241 294 c 0
 241 287 249 287 262 287 c 2
 417 287 l 2
 427 287 431 287 431 292 c 0
 431 294 430 298 429 302 c 2
 350 541 l 2
 346 553 344 559 341 559 c 0
 339 559 337 553 333 542 c 2
EndSplineSet
EndChar

StartChar: uniA737
Encoding: 42807 42807 3079
Width: 661
VWidth: 0
Flags: HW
AnchorPoint: "cedilla" 303 8 basechar 0
AnchorPoint: "ogonek" 341 18 basechar 0
AnchorPoint: "below_accent" 178 -100 basechar 0
AnchorPoint: "top_accent" 191 550 basechar 0
LayerCount: 3
Fore
SplineSet
309 323 m 2
 309 128 l 2
 309 80 330 37 373 37 c 0
 407 37 432 38 457 57 c 0
 472 68 502 91 502 132 c 2
 502 315 l 2
 502 356 457 364 437 365 c 0
 432 365 414 368 414 382 c 0
 414 394 433 397 437 397 c 0
 538 402 530 405 566 415 c 1
 568 415 l 2
 577 415 585 405 580 397 c 0
 576 390 572 342 572 326 c 2
 572 114 l 2
 572 73 574 45 590 45 c 0
 600 45 626 46 636 48 c 0
 641 49 651 47 651 35 c 0
 651 24 642 21 637 21 c 0
 585 14 549 -1 520 -13 c 0
 516 -15 502 -19 496 -19 c 0
 492 -19 493 -18 493 -15 c 0
 493 -2 498 34 498 51 c 2
 498 57 l 1
 446 6 415 -14 353 -14 c 0
 288 -14 239 27 239 105 c 2
 239 308 l 2
 309 323 l 2
115 87 m 0
 115 49 145 32 164 32 c 0
 190 32 208 45 224 59 c 0
 231 65 235 74 236 99 c 10
 238 148 l 18
 239 163 237 169 229 169 c 0
 226 169 220 168 215 166 c 0
 138 140 115 110 115 87 c 0
244 38 m 0
 231 38 203 -13 121 -14 c 0
 80 -14 35 26 35 65 c 0
 35 107 59 135 108 155 c 10
 210 197 l 18
 236 208 237 210 238 237 c 2
 240 301 l 2
 241 335 217 365 181 365 c 0
 157 365 128 347 120 333 c 0
 117 328 116 321 116 314 c 0
 116 309 117 305 117 300 c 0
 117 286 61 265 48 265 c 0
 42 265 40 271 40 274 c 0
 40 295 55 321 80 343 c 0
 111 371 176 414 229 414 c 0
 276 414 312 374 311 325 c 10
 306 109 l 18
 244 38 l 0
EndSplineSet
EndChar

StartChar: uniA738
Encoding: 42808 42808 3080
Width: 902
VWidth: 0
Flags: HW
AnchorPoint: "cedilla" 124 8 basechar 0
AnchorPoint: "ogonek" 508 18 basechar 0
AnchorPoint: "below_accent" 334 -100 basechar 0
AnchorPoint: "top_accent" 363 710 basechar 0
LayerCount: 3
Fore
SplineSet
451 233 m 2
 447 243 442 244 424 244 c 2
 233 244 l 2
 227 244 221 240 216 226 c 0
 207 200 176 100 176 87 c 0
 176 58 202 38 234 30 c 0
 257 24 267 19 267 10 c 0
 267 2 255 -1 238 -1 c 0
 220 -1 184 1 147 1 c 0
 103 1 60 -5 27 -5 c 0
 10 -5 -2 0 -2 8 c 0
 -2 17 9 24 31 31 c 0
 65 41 95 58 117 108 c 0
 192 279 237 393 304 578 c 0
 319 620 316 635 318 636 c 0
 330 640 342 643 354 651 c 0
 368 660 370 686 375 686 c 0
 380 686 382 671 385 662 c 0
 393.272878646 635.759463045 401 609 410.530273438 582 c 2
 552 197 l 2
 559 178 565 169 570 169 c 0
 575 169 580 178 588 197 c 2
 729 547 l 2
 731 551 737 575 737 579 c 0
 737 595 694 613 670 620 c 0
 656 624 637 631 637 640 c 0
 637 648 649 651 666 651 c 0
 692 651 727 650 765 650 c 0
 804 650 853 653 879 653 c 0
 896 653 908 650 908 642 c 0
 908 633 898 627 875 622 c 0
 826 611 792 571 777 535 c 10
 589 79 l 2
 584 66 560 -15 546 -15 c 0
 541 -15 526 28 516 56 c 18
 451 233 l 2
333 542 m 2
 243 302 l 2
 242 299 241 296 241 294 c 0
 241 287 249 287 262 287 c 2
 417 287 l 2
 427 287 431 287 431 292 c 0
 431 294 430 298 429 302 c 2
 350 541 l 2
 346 553 344 559 341 559 c 0
 339 559 337 553 333 542 c 2
EndSplineSet
EndChar

StartChar: uniA739
Encoding: 42809 42809 3081
Width: 575
VWidth: 0
Flags: HW
AnchorPoint: "cedilla" 303 8 basechar 0
AnchorPoint: "ogonek" 341 18 basechar 0
AnchorPoint: "below_accent" 178 -100 basechar 0
AnchorPoint: "top_accent" 191 550 basechar 0
LayerCount: 3
Fore
SplineSet
352 46 m 6
 442 295 l 6
 447 308 449 320 449 331 c 4
 449 356 438 374 424 378 c 4
 413 382 401 386 401 396 c 4
 401 404 414 405 421 405 c 4
 436 405 459 400 494 400 c 4
 529 400 534 405 553 405 c 4
 560 405 573 404 573 396 c 4
 573 386 561 382 550 378 c 4
 530 372 501 344 488 311 c 22
 378 20 l 6
 370.634918011 0.516010373937 350 -14 318 -14 c 4
 261 -14 252 38 244 38 c 4
 231 38 203 -13 121 -14 c 4
 80 -14 35 26 35 65 c 4
 35 107 59 135 108 155 c 14
 210 197 l 22
 236 208 237 210 238 237 c 6
 240 301 l 6
 241 335 217 365 181 365 c 4
 157 365 128 347 120 333 c 4
 117 328 116 321 116 314 c 4
 116 309 117 305 117 300 c 4
 117 286 61 265 48 265 c 4
 42 265 40 271 40 274 c 4
 40 295 55 321 80 343 c 4
 111 371 176 414 229 414 c 4
 276 414 312 374 311 325 c 14
 306 109 l 22
 306 70 313 32 342 32 c 4
 352 46 l 6
115 87 m 4
 115 49 145 32 164 32 c 4
 190 32 208 45 224 59 c 4
 231 65 235 74 236 99 c 14
 238 148 l 22
 239 163 237 169 229 169 c 4
 226 169 220 168 215 166 c 4
 138 140 115 110 115 87 c 4
EndSplineSet
EndChar

StartChar: uniA73A
Encoding: 42810 42810 3082
Width: 902
VWidth: 0
Flags: HW
LayerCount: 3
Fore
SplineSet
275 287 m 25
 775 287 l 17
 791.423881693 272.666666665 778.307955363 258.333333336 774 244 c 9
 276 244 l 25
 275 287 l 25
EndSplineSet
Refer: 3080 42808 N 1 0 0 1 0 0 2
EndChar

StartChar: uniA73B
Encoding: 42811 42811 3083
Width: 575
VWidth: 0
Flags: HW
LayerCount: 3
Fore
SplineSet
248 212 m 29
 456 294 l 25
 456 256 l 25
 250 180 l 25
 248 212 l 29
EndSplineSet
Refer: 3081 42809 N 1 0 0 1 0 0 2
EndChar

StartChar: uniA73D
Encoding: 42813 42813 3085
Width: 575
VWidth: 0
Flags: HW
AnchorPoint: "top_accent" 191 550 basechar 0
AnchorPoint: "below_accent" 178 -100 basechar 0
AnchorPoint: "ogonek" 341 18 basechar 0
AnchorPoint: "cedilla" 303 8 basechar 0
LayerCount: 3
Fore
SplineSet
352 46 m 2
 442 295 l 2
 447 308 449 320 449 331 c 0
 449 356 438 374 424 378 c 0
 413 382 401 386 401 396 c 0
 401 404 414 405 421 405 c 0
 436 405 459 400 494 400 c 0
 529 400 534 405 553 405 c 0
 560 405 573 404 573 396 c 0
 573 386 561 382 550 378 c 0
 530 372 501 344 488 311 c 18
 378 20 l 2
 370.634918011 0.516010373937 350 -14 318 -14 c 0
 261 -14 252 38 244 38 c 0
 231 38 203 -13 121 -14 c 0
 80 -14 35 26 35 65 c 0
 35 107 59 135 108 155 c 10
 210 197 l 18
 236 208 237 210 238 237 c 2
 240 301 l 2
 241 335 217 365 181 365 c 0
 157 365 128 347 120 333 c 0
 117 328 116 321 116 314 c 0
 116 309 117 305 117 300 c 0
 117 286 61 265 48 265 c 0
 42 265 40 271 40 274 c 0
 40 295 55 321 80 343 c 0
 111 371 176 414 229 414 c 0
 276 414 312 374 311 325 c 10
 306 109 l 18
 306 70 313 32 342 32 c 0
 352 46 l 2
115 87 m 0
 115 49 145 32 164 32 c 0
 190 32 208 45 224 59 c 0
 231 65 235 74 236 99 c 10
 238 148 l 18
 239 163 237 169 229 169 c 0
 226 169 220 168 215 166 c 0
 138 140 115 110 115 87 c 0
378 20 m 2
 374 11 310 -148 269 -244 c 0
 257 -271 233 -285 204 -285 c 8
 180 -285 153 -271 153 -249 c 8
 153 -233 160 -219 180 -219 c 0
 195 -219 209 -225 220 -225 c 0
 228 -225 234 -222 239 -214 c 0
 260 -178 314 -60 343 17 c 0
 378 20 l 2
EndSplineSet
EndChar

StartChar: uniA73E
Encoding: 42814 42814 3086
Width: 640
VWidth: 0
Flags: HW
LayerCount: 3
Fore
SplineSet
255 366 m 24
 285 366 310 341 310 311 c 24
 310 281 285 256 255 256 c 24
 225 256 200 281 200 311 c 24
 200 341 225 366 255 366 c 24
EndSplineSet
Refer: 32 67 N -1 -0 0 -1 640 648 2
EndChar

StartChar: uniA73F
Encoding: 42815 42815 3087
Width: 377
VWidth: 0
Flags: HW
AnchorPoint: "cedilla" 210 8 basechar 0
AnchorPoint: "below_accent" 169 -100 basechar 0
AnchorPoint: "top_accent" 200 550 basechar 0
LayerCount: 3
Fore
SplineSet
130 250 m 24
 160 250 185 225 185 195 c 24
 185 165 160 140 130 140 c 24
 100 140 75 165 75 195 c 24
 75 225 100 250 130 250 c 24
44 80 m 0
 53 80 64 75 69 70 c 0
 102 34 113 23 163 23 c 8
 236 23 273 100 273 173 c 16
 273 269 210 361 114 361 c 16
 72 361 52 345 26 311 c 0
 23 308 20 306 17 306 c 0
 11 306 5 313 5 320 c 0
 5 357 85 413 171 413 c 8
 272 413 342 322 342 219 c 8
 342 96 254 -14 131 -14 c 16
 88 -14 41 -3 11 34 c 0
 8 38 6 42 6 46 c 0
 6 63 34 80 44 80 c 0
EndSplineSet
EndChar

StartChar: uniA740
Encoding: 42816 42816 3088
Width: 681
VWidth: 0
Flags: HW
LayerCount: 3
Fore
SplineSet
338 553 m 6
 344 553 352 548 352 542 c 4
 352 541 351 540 351 539 c 4
 344 526 335 517 320 517 c 6
 21 517 l 6
 12 517 7 529 7 535 c 4
 7 544 19 553 31 553 c 6
 338 553 l 6
EndSplineSet
Refer: 61 75 N 1 0 0 1 0 0 2
EndChar

StartChar: uniA741
Encoding: 42817 42817 3089
Width: 469
VWidth: 0
Flags: HW
LayerCount: 3
Fore
SplineSet
24 522 m 6
 17 522 10 528 10 534 c 4
 10 543 20 560 34 560 c 6
 214 560 l 6
 220 560 227 554 227 548 c 4
 227 528 212 522 196 522 c 6
 24 522 l 6
EndSplineSet
Refer: 62 107 N 1 0 0 1 0 0 2
EndChar

StartChar: uniA742
Encoding: 42818 42818 2392
Width: 681
VWidth: 0
Flags: HMW
LayerCount: 3
Fore
SplineSet
433 254 m 5
 482 284 l 6
 484 285 487 286 489 286 c 4
 495 286 500 281 500 266 c 4
 500 259 491 251 482 246 c 6
 432 216 l 5
 342 158 l 5
 296 129 l 6
 288 125 276 137 276 145 c 4
 276 154 284 160 289 163 c 6
 342 196 l 5
 433 254 l 5
EndSplineSet
Refer: 61 75 N 1 0 0 1 0 0 2
Position2: "rtbd subtable" dx=0 dy=0 dh=-34 dv=0
EndChar

StartChar: uniA744
Encoding: 42820 42820 3090
Width: 681
VWidth: 0
Flags: HW
LayerCount: 3
Fore
SplineSet
433 254 m 1
 482 284 l 2
 484 285 487 286 489 286 c 0
 495 286 500 281 500 266 c 0
 500 259 491 251 482 246 c 2
 432 216 l 1
 342 158 l 1
 296 129 l 2
 288 125 276 137 276 145 c 0
 276 154 284 160 289 163 c 2
 342 196 l 1
 433 254 l 1
EndSplineSet
Refer: 3088 42816 N 1 0 0 1 0 0 2
EndChar

StartChar: uniA745
Encoding: 42821 42821 3091
Width: 469
VWidth: 0
Flags: HW
LayerCount: 3
Fore
SplineSet
313 174 m 5
 362 204 l 6
 364 205 367 206 369 206 c 4
 375 206 380 201 380 186 c 4
 380 179 371 171 362 166 c 6
 312 136 l 5
 242 98 l 5
 196 69 l 6
 188 65 176 77 176 85 c 4
 176 94 184 100 189 103 c 6
 242 136 l 5
 313 174 l 5
EndSplineSet
Refer: 3089 42817 N 1 0 0 1 0 0 2
EndChar

StartChar: uniA746
Encoding: 42822 42822 3092
Width: 728
VWidth: 0
Flags: W
HStem: -5 40<360.001 620.636> -5 29<167.356 234.228> 622 31<37.0745 116.488 238.822 330.926>
VStem: 130 80<355 603.136> 270 80<47.25 324> 681 34<139.048 159.894>
AnchorPoint: "top_right" 437 624 basechar 0
AnchorPoint: "top_right1" 437 640 basechar 0
AnchorPoint: "cedilla" 323 8 basechar 0
AnchorPoint: "below_accent" 454 -100 basechar 0
AnchorPoint: "top_accent" 186 710 basechar 0
LayerCount: 3
Fore
SplineSet
350 382 m 1x7c
 350 96 l 2
 350 55 361 35 427 35 c 2
 573 35 l 2xbc
 578 35 611 45 629 61 c 24
 655 84 664 96 681 132 c 0
 684 140 694 162 703 162 c 0
 711 162 715 152 715 144 c 0
 715 142 714 140 714 139 c 0
 700 87 691 54 687 12 c 0
 686 3 683 -5 673 -5 c 8
 539 -5 430 0 330 0 c 0
 280 0 195 -5 195 -5 c 2
 177 -5 167 0 167 7 c 0
 167 19 185 23 189 24 c 0
 241 34 270 52 270 96 c 2
 270 324 l 1
 130 299 l 1
 130 560 l 2
 130 608 119 613 69 622 c 0
 46 626 36 633 36 642 c 0
 36 650 48 653 65 653 c 0
 119 653 133 650 177 650 c 24
 226 650 249 653 303 653 c 0
 320 653 332 650 332 642 c 0
 332 633 322 626 299 622 c 0
 249 613 210 606 210 567 c 2
 210 355 l 1
 350 382 l 1x7c
EndSplineSet
EndChar

StartChar: uniA747
Encoding: 42823 42823 3093
Width: 340
VWidth: 0
Flags: HW
AnchorPoint: "top_right" 222 660 basechar 0
AnchorPoint: "top_right1" 212 650 basechar 0
AnchorPoint: "cedilla" 230 8 basechar 0
AnchorPoint: "below_accent" 220 -100 basechar 0
AnchorPoint: "top_accent" 119 790 basechar 0
LayerCount: 3
Fore
SplineSet
85 300 m 1
 85 566 l 2
 85 605 72 632 39 639 c 0
 34 640 31 646 31 652 c 0
 31 658 34 663 38 664 c 0
 89 676 122 692 154 704 c 0
 155 704 155 705 156 705 c 0
 159 705 162 701 162 698 c 0
 162 686 155 652 155 562 c 2
 155 350 l 1
 254 368 l 1
 255 62 l 2
 255 33 278 30 298 24 c 0
 309 20 321 16 321 6 c 0
 321 -2 308 -3 301 -3 c 0
 262 -3 255 2 220 2 c 0
 185 2 178 -3 139 -3 c 0
 132 -3 119 -2 119 6 c 0
 119 16 131 20 142 24 c 0
 162 30 185 35 185 62 c 2
 185 320 l 1
 85 300 l 1
EndSplineSet
EndChar

StartChar: uniA74A
Encoding: 42826 42826 3095
Width: 803
VWidth: 0
Flags: HW
LayerCount: 3
Fore
SplineSet
781 343 m 2
 787 343 795 338 795 332 c 0
 795 331 794 330 794 329 c 0
 787 316 778 297 763 297 c 2
 24 297 l 2
 15 297 10 309 10 315 c 0
 10 324 22 343 34 343 c 2
 781 343 l 2
EndSplineSet
Refer: 46 79 N 1 0 0 1 23 0 2
EndChar

StartChar: uniA74B
Encoding: 42827 42827 3096
Width: 535
VWidth: 0
Flags: HW
LayerCount: 3
Fore
SplineSet
24 172 m 2
 17 172 10 178 10 184 c 0
 10 193 20 210 34 210 c 2
 514 210 l 2
 520 210 527 204 527 198 c 0
 527 178 512 172 496 172 c 2
 24 172 l 2
EndSplineSet
Refer: 3 111 N 1 0 0 1 20 0 2
EndChar

StartChar: uniA74C
Encoding: 42828 42828 3097
Width: 763
VWidth: 0
Flags: HW
AnchorPoint: "cedilla" 412 8 basechar 0
AnchorPoint: "ogonek" 520 18 basechar 0
AnchorPoint: "below_accent" 370 -100 basechar 0
AnchorPoint: "top_accent" 383 710 basechar 0
LayerCount: 3
Fore
SplineSet
604 441 m 5
 591 528 622 669 778 669 c 3
 860.024414062 669 896 641.092773438 896 555 c 3
 896 480 808 401 716 401 c 27
 676 401 654 405 614 407 c 25
 622 477 l 25
 670 462 694 439 744 439 c 27
 786 439 812 473 812 523 c 3
 812 601.025390625 779 643 742 643 c 3
 695.470439503 643 648 579 698 455 c 9
 698 455 620 441 604 441 c 5
375 625 m 0
 227 625 142 490 142 350 c 0
 142 179 247 25 395 25 c 0
 545 25 621 134 621 305 c 0
 621 495 535 625 375 625 c 0
45 320 m 0
 45 501 166 664 390 664 c 0
 564 664 718 532 718 335 c 0
 718 155 601 -14 382 -14 c 0
 205 -14 45 130 45 320 c 0
EndSplineSet
EndChar

StartChar: uniA74D
Encoding: 42829 42829 3098
Width: 495
VWidth: 0
Flags: HW
AnchorPoint: "cedilla" 300 8 basechar 0
AnchorPoint: "ogonek" 337 18 basechar 0
AnchorPoint: "below_accent" 246 -100 basechar 0
AnchorPoint: "top_accent" 246 550 basechar 0
LayerCount: 3
Fore
SplineSet
369 261 m 1
 345 348 352 459 508 459 c 3
 580 459 606 424.007245996 606 355 c 3
 606 280 531 221 451 221 c 27
 423 221 407 225 379 227 c 25
 387 297 l 25
 423 282 440 259 479 259 c 27
 514 259 542 288 542 323 c 3
 542 400.006493233 498 430 461 430 c 3
 440.408739718 430 409 400 447 274 c 9
 447 274 385 261 369 261 c 1
237 383 m 0
 201 383 173 374 149 343 c 0
 122 309 117 258 117 210 c 0
 117 111 175 16 255 16 c 0
 300 16 338 32 358 71 c 0
 374 102 378 150 378 189 c 0
 378 284 322 383 237 383 c 0
254 414 m 0
 370 414 460 321 460 213 c 0
 460 96 384 -14 234 -14 c 0
 122 -14 35 70 35 187 c 0
 35 298 131 414 254 414 c 0
EndSplineSet
EndChar

StartChar: uniA74E
Encoding: 42830 42830 3099
Width: 1333
VWidth: 0
Flags: HW
AnchorPoint: "cedilla" 412 8 basechar 0
AnchorPoint: "ogonek" 520 18 basechar 0
AnchorPoint: "below_accent" 370 -100 basechar 0
AnchorPoint: "top_accent" 383 710 basechar 0
LayerCount: 3
Fore
SplineSet
948 625 m 0
 800 625 715 490 715 350 c 0
 715 179 820 25 968 25 c 0
 1118 25 1194 134 1194 305 c 0
 1194 495 1108 625 948 625 c 0
618 320 m 0
 618 501 739 664 963 664 c 0
 1137 664 1291 532 1291 335 c 0
 1291 155 1174 -14 955 -14 c 0
 778 -14 618 130 618 320 c 0
375 625 m 0
 227 625 142 490 142 350 c 0
 142 179 247 25 395 25 c 0
 545 25 621 134 621 305 c 0
 621 495 535 625 375 625 c 0
45 320 m 0
 45 501 166 664 390 664 c 0
 564 664 718 532 718 335 c 0
 718 155 601 -14 382 -14 c 0
 205 -14 45 130 45 320 c 0
EndSplineSet
EndChar

StartChar: uniA74F
Encoding: 42831 42831 3100
Width: 835
VWidth: 0
Flags: HW
AnchorPoint: "cedilla" 300 8 basechar 0
AnchorPoint: "ogonek" 337 18 basechar 0
AnchorPoint: "below_accent" 246 -100 basechar 0
AnchorPoint: "top_accent" 246 550 basechar 0
LayerCount: 3
Fore
SplineSet
578 383 m 0
 542 383 514 374 490 343 c 0
 463 309 458 258 458 210 c 0
 458 111 516 16 596 16 c 0
 641 16 679 32 699 71 c 0
 715 102 719 150 719 189 c 0
 719 284 663 383 578 383 c 0
595 414 m 0
 711 414 801 321 801 213 c 0
 801 96 725 -14 575 -14 c 0
 463 -14 376 70 376 187 c 0
 376 298 472 414 595 414 c 0
237 383 m 0
 201 383 173 374 149 343 c 0
 122 309 117 258 117 210 c 0
 117 111 175 16 255 16 c 0
 300 16 338 32 358 71 c 0
 374 102 378 150 378 189 c 0
 378 284 322 383 237 383 c 0
254 414 m 0
 370 414 460 321 460 213 c 0
 460 96 384 -14 234 -14 c 0
 122 -14 35 70 35 187 c 0
 35 298 131 414 254 414 c 0
EndSplineSet
EndChar

StartChar: uniA750
Encoding: 42832 42832 3101
Width: 612
VWidth: 0
Flags: HW
LayerCount: 3
Fore
SplineSet
180 138 m 5
 102 138 l 6
 69 138 57 129 43 106 c 4
 35 92 32 85 20 85 c 4
 11 85 1 125 1 151 c 4
 1 166 7 174 30 174 c 6
 180 174 l 5
 260 174 l 5
 477 174 l 6
 497 174 506 171 506 162 c 4
 506 147 487 138 465 138 c 6
 260 138 l 5
 180 138 l 5
EndSplineSet
Refer: 26 80 N 1 0 0 1 50 0 2
EndChar

StartChar: uniA752
Encoding: 42834 42834 3102
Width: 762
VWidth: 0
Flags: HW
AnchorPoint: "below_accent" 370 -100 basechar 0
AnchorPoint: "top_accent" 486 710 basechar 0
LayerCount: 3
Fore
SplineSet
503 254 m 0
 656 254 731 359 731 482 c 0
 731 590 623 658 474 658 c 0
 446 658 403 652 363 652 c 0
 322 652 319 653 265 653 c 0
 248 653 236 650 236 642 c 0
 236 633 246 626 269 622 c 0
 319 613 330 582 330 522 c 2
 330 100 l 2
 330 51 307 33 257 24 c 0
 234 20 224 15 224 6 c 0
 224 -2 236 -5 253 -5 c 0
 307 -5 332 2 383 2 c 24
 421 2 427 -5 481 -5 c 0
 498 -5 510 -2 510 6 c 0
 510 15 500 20 477 24 c 0
 427 33 410 63 410 111 c 2
 410 588 l 2
 410 618 436 630 474 630 c 0
 571 630 641 580 641 458 c 0
 641 340 600 279 520 279 c 0
 493 279 480 284 474 284 c 0
 469.874023438 284.000976562 465.716796875 284.145507812 461.532226562 284.192382812 c 0
 346.333984375 285.481445312 328 386 246 386 c 0
 166 386 120 314 120 236 c 0
 120 203 134 116 134 100 c 0
 134 71 127 39 105 39 c 0
 77 39 68 77 42 77 c 0
 21 77 1 53 1 31 c 0
 1 11 26 -5 56 -5 c 0
 124 -5 202 66 202 123 c 0
 202 161 191 221 191 284 c 0
 191 318 206 350 238 350 c 0
 310 350 336.0234375 253.932617188 503 254 c 0
EndSplineSet
EndChar

StartChar: uniA754
Encoding: 42836 42836 3103
Width: 552
VWidth: 0
Flags: HW
AnchorPoint: "below_accent" 170 -100 basechar 0
AnchorPoint: "top_accent" 286 710 basechar 0
LayerCount: 3
Fore
SplineSet
-102 330 m 1
 -102 422 -65 366 -65 518 c 3
 -65 552 -94 610 -149 610 c 3
 -195.389648438 610 -191 583.526367188 -191 550 c 3
 -191 531 -206 514 -225 514 c 27
 -250 514 -273 533 -273 558 c 27
 -273 636 -177 654 -99 654 c 27
 -46 654 7 628 7 570 c 3
 7 423 -18 447 -18 366 c 1
 -18 322 43.9541015625 281.466796875 170 279 c 1
 278 279 441 340 441 458 c 0
 441 580 371 630 274 630 c 0
 236 630 210 618 210 588 c 2
 210 111 l 2
 210 63 227 33 277 24 c 0
 300 20 310 15 310 6 c 0
 310 -2 298 -5 281 -5 c 0
 227 -5 221 2 183 2 c 24
 132 2 107 -5 53 -5 c 0
 36 -5 24 -2 24 6 c 0
 24 15 34 20 57 24 c 0
 107 33 130 51 130 100 c 2
 130 522 l 2
 130 582 119 613 69 622 c 0
 46 626 36 633 36 642 c 0
 36 650 48 653 65 653 c 0
 119 653 122 652 163 652 c 0
 203 652 246 658 274 658 c 0
 423 658 531 590 531 482 c 0
 531 359 390 254 153 254 c 1
 8 254 -102 270 -102 330 c 1
EndSplineSet
EndChar

StartChar: uniA755
Encoding: 42837 42837 3104
Width: 804
VWidth: 0
Flags: HW
AnchorPoint: "top_accent" 511 550 basechar 0
LayerCount: 3
Fore
SplineSet
193 168 m 1
 193 254 215 262.900039968 215 388 c 3
 215 438 185 495 130 495 c 3
 83.6103515625 495 89 453.526367188 89 420 c 3
 89 401 74 384 55 384 c 27
 30 384 7 403 7 428 c 27
 7 506 103 524 181 524 c 27
 234 524 287 498 287 440 c 3
 287 301.996376859 263 268.038085938 263 216 c 1
 263 76 319 17 434 17 c 1
 562 21 700 39 704 193 c 0
 707.998651382 346.948078218 611 369 568 369 c 0
 534 369 507 359 482 340 c 0
 467 329 458 310 456 269 c 0
 456 252 455 229 455 205 c 0
 455 171 456 136 457 115 c 0
 458 97 460 72 458 54 c 0
 459 15 l 1
 456 15 455 -27 455 -33 c 2
 455 -220 l 2
 455 -247 493 -252 513 -258 c 0
 524 -262 536 -266 536 -276 c 0
 536 -284 522 -285 514 -285 c 0
 475 -285 455 -280 420 -280 c 0
 385 -280 379 -285 340 -285 c 0
 333 -285 319 -284 319 -276 c 0
 319 -266 331 -262 342 -258 c 0
 362 -252 385 -247 385 -220 c 2
 385 287 l 2
 385 302 372 353 339 360 c 0
 334 361 331 367 331 373 c 0
 331 379 334 384 338 385 c 0
 389 397 422 412 454 425 c 0
 455 425 455 426 456 426 c 0
 459 426 462 421 462 417 c 0
 462 405 457 373 457 357 c 0
 457 353 457 349 458 348 c 1
 477 367 557 414 620 414 c 0
 723 414 784 319 784 225 c 0
 784 78 670 -15 419 -14 c 1
 286 -14 193 43 193 168 c 1
386 72 m 25
 384 46 l 17
EndSplineSet
EndChar

StartChar: uniA758
Encoding: 42840 42840 3106
Width: 806
VWidth: 0
Flags: HW
AnchorPoint: "top_accent" 405 710 basechar 0
LayerCount: 3
Fore
SplineSet
941 302 m 0
 941 156 835 42 742 -36 c 0
 727 -49 712 -60 697 -72 c 1
 627 -117 l 1
 594 -141 557 -169 512 -201 c 0
 501 -209 481 -238 478 -247 c 0
 469 -272 461 -277 450 -277 c 0
 441 -277 417 -254 417 -243 c 0
 417 -228 428 -216 496 -167 c 0
 531 -142 576 -109 627 -69 c 1
 697 -21 l 1
 711 -10 725 2 739 14 c 0
 816 78 863 170 863 284 c 0
 863 331 875 339 901 339 c 27
 922 339 941 327 941 302 c 0
383 626 m 0
 236 626 139 493 139 354 c 0
 139 181 264 12 430 12 c 0
 582 12 666 184 666 324 c 0
 666 478 546 626 383 626 c 0
374 -54 m 0
 354 -38 275 6 259 10 c 0
 183 30 45 141 45 307 c 0
 45 505 194 662 402 662 c 0
 577 662 761 553 761 350 c 0
 761 112 596 18 497 -8 c 0
 485 -11 483 -14 483 -17 c 0
 483 -20 484 -23 487 -26 c 0
 526 -68 557 -93 607 -129 c 0
 674 -177 724 -192 802 -192 c 0
 826 -192 849 -189 858 -185 c 0
 864 -183 871 -181 877 -181 c 0
 883 -181 888 -183 888 -189 c 0
 888 -201 885 -206 870 -215 c 0
 832 -237 790 -248 753 -248 c 0
 657 -248 596 -219 532 -173 c 0
 480 -136 440 -106 374 -54 c 0
EndSplineSet
EndChar

StartChar: uniA75A
Encoding: 42842 42842 3107
Width: 589
VWidth: 0
Flags: W
HStem: -21 46<523.627 633.254> 281 38<149.31 242.781> 596 63<152.978 275.814>
VStem: 316 86<391.981 552.888>
AnchorPoint: "below_accent" 294 -100 basechar 0
AnchorPoint: "top_accent" 203 710 basechar 0
LayerCount: 3
Fore
SplineSet
218 596 m 0
 130 596 111 540 76 508 c 0
 69.3984375 501.963867188 62 503 56 503 c 0
 51 503 51 505 51 523 c 1
 51 549.637695312 110 659 256 659 c 1
 324 659 402 607 402 498 c 0
 402 422 374 358 325 325 c 0
 320.533203125 321.9921875 321 318 325 312 c 0
 387 218 420 143 508 58 c 24
 542 26 576 25 623 25 c 0
 633 25 638 22 638 14 c 0
 638 -15 582 -21 557 -21 c 0
 500 -21 454 -10 419 33 c 0
 370 93 356 129 287 241 c 0
 276 259 265 273 244 280 c 24
 218 289 191 279 173 281 c 0
 162 282 147 265 149 277 c 2
 149 321 l 0
 155 311 200 319 233 319 c 0
 297 319 316 407 316 484 c 0
 316 523 289 596 218 596 c 0
EndSplineSet
EndChar

StartChar: uniA75B
Encoding: 42843 42843 3108
Width: 296
VWidth: 0
Flags: HW
LayerCount: 3
Fore
SplineSet
236 -6 m 24
 219 -6 206 -10 192 0 c 24
 158 24 122.749023438 73.69140625 119 77 c 0
 102 92 100 88 100 92 c 0
 100 96 110 99 114 103 c 0
 131 120 161.87109375 149.987304688 176 165 c 0
 192 182 226 207 226 267 c 0
 226 314 199 345 161 345 c 0
 116 345 79 335 45 297 c 0
 41 293 38 290 32 290 c 8
 26 290 25 298 25 304 c 0
 25 313 72 413 190 413 c 0
 254 413 294 353 294 290 c 0
 294 258 277 220 253 191 c 0
 223 155 191 112 181 105 c 0
 175 101 186 101 190 97 c 2
 290 0 l 2
 290 0 257 -6 236 -6 c 24
EndSplineSet
EndChar

StartChar: uniA75C
Encoding: 42844 42844 3109
Width: 603
VWidth: 0
Flags: HW
LayerCount: 3
Fore
SplineSet
457 226 m 5
 503 369 l 6
 513 400 480 434 463 455 c 4
 453 467 448 473 452 484 c 4
 455 492 536 468 560 459 c 4
 574 454 580 446 572 424 c 6
 500 213 l 5
 473 138 l 5
 369 -116 l 6
 362 -135 356 -142 348 -139 c 4
 334 -134 321 -113 329 -92 c 6
 429 150 l 5
 457 226 l 5
82 482 m 0
 78 474 71 468 65 468 c 0
 60 468 50 480 50 498 c 0
 50 529 137 630 250 630 c 0
 350 630 405 551 405 461 c 0
 405 413 378 346 332 290 c 0
 287 236 122 76 122 71 c 0
 122 66 128 65 136 64 c 0
 158 62 317 61 354 61 c 0
 392 61 432 62 468 64 c 0
 525 67 538 71 563 111 c 0
 568 119 577 134 588 134 c 0
 594 134 595 127 595 122 c 0
 595 112 575 71 565 21 c 0
 561 0 550 -3 543 -3 c 0
 523 -3 458 3 408 3 c 0
 358 3 66 -2 46 -2 c 0
 41 -2 26 9 26 15 c 0
 26 21 28 22 34 28 c 2
 205 205 l 2
 235 236 319 330 319 445 c 0
 319 507 282 568 220 568 c 0
 165 568 110 530 82 482 c 0
EndSplineSet
EndChar

StartChar: uniA75D
Encoding: 42845 42845 3110
Width: 580
VWidth: 0
Flags: HW
LayerCount: 3
Fore
SplineSet
387 156 m 1
 433 299 l 2
 443 330 430 344 413 365 c 4
 403 377 398 383 402 394 c 4
 405 402 456 398 480 389 c 0
 494 384 500 376 492 354 c 2
 420 143 l 1
 393 68 l 1
 289 -186 l 2
 282 -205 276 -212 268 -209 c 0
 254 -204 250 -182 259 -162 c 2
 359 80 l 1
 387 156 l 1
463 -4 m 0
 449 -4 359 -0 292 0 c 24
 189 0 34 -3 29 -3 c 0
 26 -3 22 1 22 5 c 0
 22 9 25 13 29 17 c 0
 46 34 74 61 90 74 c 0
 112 92 226 186 226 267 c 0
 226 314 199 345 161 345 c 0
 116 345 79 335 45 297 c 0
 41 293 38 290 32 290 c 8
 26 290 25 298 25 304 c 0
 25 313 72 413 190 413 c 0
 254 413 294 353 294 290 c 0
 294 258 277 220 253 191 c 0
 223 155 142 80 132 73 c 0
 126 69 135 65 141 65 c 2
 396 65 l 2
 434 65 470 90 489 128 c 0
 492 133 499 138 508 138 c 0
 511 138 512 135 512 132 c 0
 512 130 512 128 511 126 c 0
 495 81 478 22 478 12 c 0
 478 2 465 -4 463 -4 c 0
EndSplineSet
EndChar

StartChar: uniA75E
Encoding: 42846 42846 3111
Width: 672
VWidth: 0
Flags: HW
AnchorPoint: "below_accent" 297 -100 basechar 0
AnchorPoint: "top_accent" 323 710 basechar 0
LayerCount: 3
Fore
SplineSet
267 336 m 5
 313 479 l 6
 323 510 290 544 273 565 c 4
 263 577 258 583 262 594 c 4
 265 602 346 578 370 569 c 4
 384 564 390 556 382 534 c 6
 310 323 l 5
 283 248 l 5
 179 -6 l 6
 172 -25 166 -32 158 -29 c 4
 144 -24 131 -3 139 18 c 6
 239 260 l 5
 267 336 l 5
535 650 m 0
 574 650 623 653 649 653 c 0
 666 653 678 650 678 642 c 0
 678 633 668 627 645 622 c 0
 596 611 562 571 547 535 c 10
 359 79 l 2
 354 66 330 -15 316 -15 c 0
 311 -15 296 28 286 56 c 18
 103 547 l 10
 89 584 67 610 33 620 c 0
 11 627 0 633 0 642 c 0
 0 650 12 653 29 653 c 0
 60 653 105 650 151 650 c 0
 191 650 233 652 253 652 c 0
 270 652 282 649 282 641 c 0
 282 632 272 625 249 621 c 0
 219 615 186 598 186 580 c 0
 186 572 192 542 195 533 c 2
 322 197 l 2
 329 178 335 169 340 169 c 0
 345 169 350 178 358 197 c 2
 499 547 l 2
 501 551 507 575 507 579 c 0
 507 595 464 613 440 620 c 0
 426 624 407 631 407 640 c 0
 407 648 419 651 436 651 c 0
 462 651 497 650 535 650 c 0
EndSplineSet
EndChar

StartChar: uniA760
Encoding: 42848 42848 3113
Width: 672
VWidth: 0
Flags: HW
AnchorPoint: "below_accent" 297 -100 basechar 0
AnchorPoint: "top_accent" 323 710 basechar 0
LayerCount: 3
Fore
SplineSet
679 79 m 2
 618.272460938 -68.2958984375 558 -180 514 -180 c 0
 467 -180 436 -155 436 -122 c 0
 436 -95 453 -67 476 -67 c 0
 512 -67 510 -92 550 -92 c 0
 560 -92 563.232421875 -81.3720703125 593 -33 c 0
 601 -20 607 -14 607 -5 c 0
 607 25.4697265625 614 34 606 56 c 18
 423 547 l 10
 409 584 387 610 353 620 c 0
 331 627 320 633 320 642 c 0
 320 650 332 653 349 653 c 0
 380 653 425 650 471 650 c 0
 511 650 553 652 573 652 c 0
 590 652 602 649 602 641 c 0
 602 632 592 625 569 621 c 0
 539 615 506 598 506 580 c 0
 506 572 512 542 515 533 c 2
 642 197 l 2
 649 178 655 169 660 169 c 0
 665 169 670 178 678 197 c 2
 819 547 l 2
 821 551 827 575 827 579 c 0
 827 595 784 613 760 620 c 0
 746 624 727 631 727 640 c 0
 727 648 739 651 756 651 c 0
 782 651 817 650 855 650 c 0
 894 650 943 653 969 653 c 0
 986 653 998 650 998 642 c 0
 998 633 988 627 965 622 c 0
 916 611 882 571 867 535 c 10
 679 79 l 2
636 -15 m 0
528 493 m 10
 359 79 l 2
 354 66 330 -15 316 -15 c 0
 311 -15 296 28 286 56 c 18
 103 547 l 10
 89 584 67 610 33 620 c 0
 11 627 0 633 0 642 c 0
 0 650 12 653 29 653 c 0
 60 653 105 650 151 650 c 0
 191 650 233 652 253 652 c 0
 270 652 282 649 282 641 c 0
 282 632 272 625 249 621 c 0
 219 615 186 598 186 580 c 0
 186 572 192 542 195 533 c 2
 322 197 l 2
 329 178 335 169 340 169 c 0
 345 169 350 178 358 197 c 2
 499 547 l 2
 528 493 l 10
EndSplineSet
EndChar

StartChar: uniA761
Encoding: 42849 42849 3114
Width: 438
VWidth: 0
Flags: HW
AnchorPoint: "below_accent" 218 -100 basechar 0
AnchorPoint: "top_accent" 218 550 basechar 0
LayerCount: 3
Fore
SplineSet
273 -249 m 8
 273 -233 280 -219 300 -219 c 0
 315 -219 329 -225 340 -225 c 0
 348 -225 354 -222 359 -214 c 0
 380 -178 421 -93 450 -16 c 0
 452 -10 453 -2 453 7 c 0
 453 18 452 28 449 36 c 2
 333 329 l 10
 323 353 308 372 288 378 c 0
 277 382 265 386 265 396 c 0
 265 404 278 405 285 405 c 0
 325 405 323 400 358 400 c 0
 393 400 394 405 434 405 c 0
 442 405 454 402 454 394 c 0
 454 384 436 375 425 372 c 0
 411 368 405 359 405 340 c 0
 405 332 410 319 413 312 c 2
 492 116 l 2
 498 102 502 103 507 117 c 2
 574 295 l 2
 578 304 582 322 582 332 c 0
 582 357 574 365 562 370 c 0
 551 375 533 384 533 394 c 0
 533 402 546 405 553 405 c 0
 571 405 587 400 624 400 c 0
 661 400 661 405 683 405 c 0
 690 405 703 404 703 396 c 0
 703 386 691 382 680 378 c 0
 660 372 634 343 621 311 c 26
 485 -13 l 2
 481 -22 430 -148 389 -244 c 0
 377 -271 353 -285 324 -285 c 8
 300 -285 273 -271 273 -249 c 8
294 378 m 0
 283 382 271 386 271 396 c 0
 271 404 284 405 291 405 c 0
 306 405 329 400 364 400 c 0
 399 400 404 405 423 405 c 0
 430 405 443 404 443 396 c 0
 443 386 431 382 420 378 c 0
 400 372 372 344 358 311 c 18
 280 123 l 2
 275 112 243 23 243 23 c 1
 243 23 221 -22 216 -22 c 0
 211 -22 199 8 196 17 c 2
 74 329 l 10
 64 353 48 372 28 378 c 0
 17 382 5 386 5 396 c 0
 5 404 18 405 25 405 c 0
 64 405 63 400 98 400 c 0
 133 400 134 405 173 405 c 0
 180 405 193 404 193 396 c 0
 193 386 181 382 170 378 c 0
 156 374 150 356 150 337 c 0
 150 328 151 318 154 310 c 2
 228 111 l 2
 233 97 235 96 240 110 c 2
 312 295 l 2
 317 308 319 320 319 331 c 0
 319 356 308 374 294 378 c 0
EndSplineSet
EndChar

StartChar: uniA762
Encoding: 42850 42850 3115
Width: 510
VWidth: 0
Flags: HW
AnchorPoint: "top_accent" 250 630 basechar 0
LayerCount: 3
Fore
SplineSet
38 518 m 1
 38 606 116 713 250 713 c 0
 282 713 338 707 356 701 c 0
 374 695 412 686 432 683 c 0
 440 682 444 667 445 653 c 0
 449 622 452 636 453 584 c 0
 454 575 452 560 442 561 c 0
 431 562 420 575 416 598 c 1
 392 616 393 620 381 631 c 0
 371 641 326 682 234 682 c 0
 162 682 126 622 126 547 c 1
 126 484 156 400 263 402 c 1
 399 402 l 2
 419 402 435 405 445 405 c 0
 451 405 455 388 451 383 c 2
 270 175 l 18
 266 171 265 164 271 164 c 0
 371 164 460 153 460 37 c 0
 459 -115 322 -182 201 -182 c 0
 147 -182 112 -168 80 -153 c 0
 67 -147 49 -134 46 -116 c 0
 42 -88 35 -45 35 -9 c 0
 35 -1 45 6 55 6 c 0
 59 6 67 -9 79 -38 c 0
 107 -108 163 -151 218 -151 c 0
 323 -151 370 -65 370 21 c 0
 370 98 319 128 237 128 c 0
 224 128 225 127 214 127 c 0
 200 127 191 130 191 143 c 0
 191 154 186 162 208 177 c 2
 345 322 l 2
 351 329 355 336 355 346 c 0
 355 356 341 357 325 357 c 2
 214 358 l 1
 104 358 38 418 38 518 c 1
EndSplineSet
EndChar

StartChar: uniA763
Encoding: 42851 42851 3116
Width: 391
VWidth: 0
Flags: HW
AnchorPoint: "top_accent" 199 550 basechar 0
LayerCount: 3
Fore
SplineSet
35 500 m 1
 35 614 117 703 226 703 c 16
 269 703 316 692 346 655 c 0
 349 651 351 647 351 643 c 0
 351 626 323 609 313 609 c 0
 304 609 293 614 288 619 c 0
 255 655 244 666 194 666 c 8
 136 666 104 614 104 546 c 1
 104 504 128 402 220 402 c 1
 282 402 310 403 363 404 c 0
 368 404 372 396 370 392 c 0
 360 374 353 363 340 343 c 0
 288 263 261 218 215 133 c 0
 210 123 216 120 224 120 c 0
 231 120 239 122 241 122 c 8
 323 122 386 55 386 -31 c 0
 386 -138 269 -285 128 -285 c 16
 117 -285 72 -284 42 -268 c 24
 27 -260 24 -246 24 -228 c 0
 24 -217 27 -204 38 -204 c 0
 56 -204 63 -221 80 -230 c 0
 100 -241 116 -245 128 -245 c 8
 225 -245 301 -139 301 -67 c 0
 301 7 273 94 199 94 c 16
 168 94 129 83 115 83 c 0
 101 83 111 100 110 101 c 1
 113 109 125 131 137 151 c 2
 261 354 l 2
 264 358 181 363 166 364 c 1
 108 364 35 398 35 500 c 1
EndSplineSet
EndChar

StartChar: uniA764
Encoding: 42852 42852 3117
Width: 599
VWidth: 0
Flags: HW
LayerCount: 3
Fore
SplineSet
185 548 m 1
 107 548 l 2
 74 548 62 539 48 516 c 0
 40 502 37 495 25 495 c 0
 16 495 6 535 6 561 c 0
 6 576 12 584 35 584 c 2
 185 584 l 1
 255 584 l 1
 472 584 l 2
 492 584 501 581 501 572 c 0
 501 557 482 548 460 548 c 2
 255 548 l 1
 185 548 l 1
EndSplineSet
Refer: 1005 222 N 1 0 0 1 40 0 2
EndChar

StartChar: uniA765
Encoding: 42853 42853 3118
Width: 612
VWidth: 0
Flags: HW
LayerCount: 3
Fore
SplineSet
175 508 m 5
 97 508 l 6
 64 508 52 499 38 476 c 4
 30 462 27 455 15 455 c 4
 6 455 -4 495 -4 521 c 4
 -4 536 2 544 25 544 c 6
 175 544 l 5
 245 544 l 5
 462 544 l 6
 482 544 491 541 491 532 c 4
 491 517 472 508 450 508 c 6
 245 508 l 5
 175 508 l 5
EndSplineSet
Refer: 1004 254 N 1 0 0 1 90 0 2
EndChar

StartChar: uniA766
Encoding: 42854 42854 3119
Width: 621
VWidth: 0
Flags: HW
LayerCount: 3
Fore
SplineSet
180 78 m 1
 102 78 l 2
 69 78 57 69 43 46 c 0
 35 32 32 25 20 25 c 0
 11 25 1 65 1 91 c 0
 1 106 7 114 30 114 c 2
 180 114 l 1
 260 114 l 1
 477 114 l 2
 497 114 506 111 506 102 c 0
 506 87 487 78 465 78 c 2
 260 78 l 1
 180 78 l 1
EndSplineSet
Refer: 1005 222 N 1 0 0 1 60 0 2
EndChar

StartChar: uniA767
Encoding: 42855 42855 3120
Width: 505
VWidth: 0
Flags: HW
LayerCount: 3
Fore
SplineSet
85 -152 m 5
 7 -152 l 6
 -26 -152 -38 -161 -52 -184 c 4
 -60 -198 -63 -205 -75 -205 c 4
 -84 -205 -94 -165 -94 -139 c 4
 -94 -124 -88 -116 -65 -116 c 6
 85 -116 l 5
 155 -116 l 5
 372 -116 l 6
 392 -116 401 -119 401 -128 c 4
 401 -143 382 -152 360 -152 c 6
 155 -152 l 5
 85 -152 l 5
EndSplineSet
Refer: 1004 254 N 1 0 0 1 0 0 2
EndChar

StartChar: uniA768
Encoding: 42856 42856 3121
Width: 715
VWidth: 0
Flags: HW
LayerCount: 3
Fore
SplineSet
247 106 m 0
 396 106 525 215 525 366 c 0
 525 479 508 617 388 617 c 0
 328 617 347 580 319 580 c 1
 317 580 314 588 314 594 c 0
 313 608 333 668 348 667 c 0
 360 666 396 664 422 664 c 0
 538 664 616 581 616 416 c 0
 616 185 432 56 224 56 c 16
 63 56 181 56 153 56 c 25
 153 103 l 25
 190 104 144 106 247 106 c 0
210 636 m 2
 210 -72 l 2
 210 -119 239 -137 289 -146 c 0
 312 -150 322 -155 322 -164 c 0
 322 -172 310 -175 293 -175 c 0
 239 -175 222 -170 176 -170 c 24
 126 -170 102 -175 48 -175 c 0
 31 -175 19 -172 19 -164 c 0
 19 -155 29 -150 52 -146 c 0
 102 -137 130 -119 130 -72 c 2
 130 550 l 2
 130 597 113 613 63 622 c 0
 40 626 30 633 30 642 c 0
 30 650 42 653 59 653 c 0
 113 653 130 650 176 650 c 24
 210 636 l 2
EndSplineSet
EndChar

StartChar: uniA769
Encoding: 42857 42857 3122
Width: 450
VWidth: 0
Flags: HW
LayerCount: 3
Fore
SplineSet
111 -14 m 0
 55 -14 114 -13 116 -12 c 25
 114 29 l 25
 125 29 97 29 141 29 c 0
 273 29 348 124 348 218 c 0
 348 263 334 300 311 326 c 0
 298 340 261 361 261 366 c 0
 261 385 300 414 317 414 c 0
 336 414 418 357 418 249 c 0
 418 132 309 -14 111 -14 c 0
155 -222 m 2
 155 -249 178 -254 198 -260 c 0
 209 -264 221 -268 221 -278 c 0
 221 -286 208 -287 201 -287 c 0
 162 -287 155 -282 120 -282 c 0
 85 -282 78 -287 39 -287 c 0
 32 -287 19 -286 19 -278 c 0
 19 -268 31 -264 42 -260 c 0
 62 -254 85 -249 85 -222 c 2
 85 276 l 2
 85 315 72 342 39 349 c 0
 34 350 31 356 31 362 c 0
 31 368 34 373 38 374 c 0
 89 386 122 402 154 414 c 0
 155 414 155 415 156 415 c 0
 159 415 162 411 162 408 c 0
 162 396 155 362 155 272 c 2
 155 -222 l 2
EndSplineSet
EndChar

StartChar: uniA76A
Encoding: 42858 42858 3123
Width: 507
VWidth: 0
Flags: HW
LayerCount: 3
Fore
SplineSet
162 -200 m 16
 96 -200 45 -191 45 -170 c 0
 45 -143 63 -115 81 -115 c 0
 99 -115 125 -163 192 -163 c 8
 308 -163 382 -50 382 66 c 16
 382 146 349 231 272 231 c 16
 208 231 172 215 157 215 c 0
 143 215 124 226 124 236 c 0
 124 246 148.060546875 271.251953125 161 270 c 0
 254 261 334 377 334 485 c 16
 334 555 277 596 207 596 c 8
 153 596 132 569 90 524 c 0
 79.5625377808 512.817004765 68 503 63 503 c 0
 58 503 54 515 54 524 c 0
 54 559 60 529 66 563 c 0
 68 573 97.7225321394 596.33974722 105 602 c 0
 132 623 179 664 240 664 c 8
 338 664 428 593 428 498 c 8
 428 408 376 329 320 294 c 0
 315 291 314 284 320 284 c 8
 419 284 480 181 480 86 c 8
 480 -81 329 -200 162 -200 c 16
EndSplineSet
EndChar

StartChar: uniA76C
Encoding: 42860 42860 3124
Width: 465
VWidth: 0
Flags: HW
AnchorPoint: "cedilla" 265 8 basechar 0
AnchorPoint: "below_accent" 225 -100 basechar 0
AnchorPoint: "top_accent" 240 710 basechar 0
LayerCount: 3
Fore
SplineSet
260 664 m 1
 140 664 59 584 59 497 c 0
 59 417 116 365 186 318 c 0
 268 263 338 198 338 132 c 0
 338 62 298 17 223 17 c 0
 165 17 111 42 92 103 c 0
 82 135 71 169 62 169 c 0
 51 169 41 149 41 140 c 0
 41 104 48 48 59 25 c 0
 61 20 67 14 80 8 c 0
 97 0 141 -16 214 -16 c 0
 364 -16 422 80 422 160 c 0
 422 262 326 338 269 375 c 0
 218 408 136 459 136 523 c 0
 136 590 189 631 251 631 c 0
 307 631 364 606 364 550 c 0
 364 534.702941459 338.108029255 484 264 484 c 3
 155 484 94 516 0 554 c 1
 -15.5693359375 539.388671875 -43.98046875 509.009765625 -22 484 c 9
 84 471 144 451 251 451 c 27
 339 451 438 500 438 578 c 1
 438 656 318 664 260 664 c 1
EndSplineSet
EndChar

StartChar: uniA76D
Encoding: 42861 42861 3125
Width: 373
VWidth: 0
Flags: HW
LayerCount: 3
Fore
SplineSet
288 569 m 0
 288 621.038447325 235 666 190 666 c 0
 127 666 116 585 116 522 c 0
 116 356 182 72 182 -58 c 0
 182 -185 120 -288 7 -288 c 0
 -36 -288 -96 -269 -96 -246 c 0
 -96 -216 -80 -190 -58 -190 c 0
 -34 -190 -5 -251 40 -251 c 0
 98 -251 112 -174 112 -114 c 0
 112 56 46 336 46 466 c 0
 46 606 105 706 221 706 c 0
 260 706 356 699 356 619 c 1
 356 507 307 444 168 444 c 9
 -55 507 l 17
 -60.3154296875 533.596679688 -59.548828125 582.036132812 -37 585 c 1
 50 546 116 486 221 486 c 3
 287 486 288 534 288 569 c 0
EndSplineSet
EndChar

StartChar: uniA76E
Encoding: 42862 42862 3126
Width: 466
VWidth: 0
Flags: HW
LayerCount: 3
Fore
SplineSet
239 629 m 0
 336 629 431 515 431 400 c 0
 431 275 378 186 287 87 c 24
 214 7 105 -31 35 -31 c 2
 31 -31 l 2
 26 -31 21 -31 21 -26 c 8
 21 -19 28 -13 35 -13 c 0
 95 -13 193 52 257 134 c 24
 321 217 346 292 346 389 c 0
 346 485 279 593 206 593 c 0
 141 593 88 531 88 462 c 0
 88 401 148 317 201 317 c 0
 242 317 256 331 281 343 c 0
 286 345 290 336 288 332 c 0
 281 319 266 305 255 297 c 0
 240 286 200 264 163 264 c 0
 94 264 14.599609375 338.017578125 13 410 c 0
 10 545 118 629 239 629 c 0
EndSplineSet
EndChar

StartChar: uniA770
Encoding: 42864 42864 3128
Width: 300
VWidth: 440
Flags: HW
LayerCount: 3
Fore
SplineSet
127 583 m 4
 82 583 32 611 32 659 c 0
 32 728 94 778 163 778 c 0
 229 778 279 722 279 656 c 0
 279 527 132 418 49 418 c 0
 45 418 38 425 38 429 c 0
 38 436 45 441 50 442 c 0
 135 463 211 546 217 619 c 1
 216.988450148 619.660618864 216.974457878 620.284910208 216.958007812 620.91015625 c 0
 215.071476203 692.577062533 181.597313032 750.018257184 142 750 c 0
 108 750 87 716 87 682 c 0
 87 648 119 615 153 615 c 0
 184 615 179 629 195 638 c 25
 195 605 l 25
 168 596 144.846266813 583 127 583 c 4
EndSplineSet
EndChar

StartChar: uniA771
Encoding: 42865 42865 3129
Width: 506
VWidth: 0
Flags: HW
AnchorPoint: "top_right" 489 660 basechar 0
AnchorPoint: "top_right1" 479 650 basechar 0
AnchorPoint: "cedilla" 374 8 basechar 0
AnchorPoint: "below_accent" 241 -100 basechar 0
LayerCount: 3
Fore
SplineSet
562 393 m 5
 562 471 l 6
 562 504 553 516 530 530 c 4
 516 538 509 541 509 553 c 4
 509 562 549 572 575 572 c 4
 590 572 598 566 598 543 c 6
 598 393 l 5
 598 193 l 5
 598 -24 l 6
 598 -44 595 -53 586 -53 c 4
 571 -53 562 -34 562 -12 c 6
 562 193 l 5
 562 393 l 5
338 393 m 0
 342 388 346 384 348 384 c 0
 351 384 352 390 352 408 c 2
 352 566 l 2
 352 620 335 632 301 639 c 0
 296 640 293 646 293 652 c 0
 293 657 295 663 300 664 c 0
 373 681 408 704 422 704 c 0
 426 704 428 702 429 698 c 1
 429 686 422 652 422 562 c 2
 422 110 l 2
 422 68 411 42 633 45 c 0
 642.999023438 45.134765625 669 46 679 48 c 0
 684 49 694 47 694 35 c 0
 694 24 685 21 680 21 c 1
 437 0 421.21020189 7.3217148783 373 -13 c 1
 369 -15 355 -19 349 -19 c 0
 345 -19 346 -18 346 -15 c 0
 346 -2 351 34 351 51 c 2
 351 57 l 1
 331 26 286 -14 220 -14 c 0
 106 -14 35 89 35 190 c 0
 35 306 120 414 260 414 c 0
 288 414 332 400 338 393 c 0
229 379 m 0
 190 379 109 347 109 213 c 0
 109 62 213 31 257 31 c 0
 313 31 352 72 352 120 c 2
 352 255 l 2
 352 311 307 379 229 379 c 0
EndSplineSet
EndChar

StartChar: uniA772
Encoding: 42866 42866 3130
Width: 240
VWidth: 0
Flags: HW
AnchorPoint: "top_right" 222 660 basechar 0
AnchorPoint: "top_right1" 212 650 basechar 0
AnchorPoint: "cedilla" 130 8 basechar 0
AnchorPoint: "below_accent" 120 -100 basechar 0
AnchorPoint: "top_accent" 119 790 basechar 0
LayerCount: 3
Fore
SplineSet
312 393 m 1
 312 471 l 2
 312 504 303 516 280 530 c 0
 266 538 259 541 259 553 c 0
 259 562 299 572 325 572 c 0
 340 572 348 566 348 543 c 2
 348 393 l 1
 348 193 l 1
 348 -24 l 2
 348 -44 345 -53 336 -53 c 0
 321 -53 312 -34 312 -12 c 2
 312 193 l 1
 312 393 l 1
155 62 m 2
 155 35 240 32 418 24 c 4
 429.693359375 23.474609375 441 16 441 6 c 4
 441 -2 428 -3 421 -3 c 4
 382 -3 155 2 120 2 c 0
 85 2 78 -3 39 -3 c 0
 32 -3 19 -2 19 6 c 0
 19 16 31 20 42 24 c 0
 62 30 85 35 85 62 c 2
 85 566 l 2
 85 605 72 632 39 639 c 0
 34 640 31 646 31 652 c 0
 31 658 34 663 38 664 c 0
 89 676 122 692 154 704 c 0
 155 704 155 705 156 705 c 0
 159 705 162 701 162 698 c 0
 162 686 155 652 155 562 c 2
 155 62 l 2
EndSplineSet
EndChar

StartChar: uniA773
Encoding: 42867 42867 3131
Width: 778
VWidth: 0
Flags: HW
AnchorPoint: "cedilla" 654 8 basechar 0
AnchorPoint: "below_accent" 390 -100 basechar 0
AnchorPoint: "top_accent" 390 550 basechar 0
LayerCount: 3
Fore
SplineSet
822 393 m 5
 822 471 l 6
 822 504 813 516 790 530 c 4
 776 538 769 541 769 553 c 4
 769 562 809 572 835 572 c 4
 850 572 858 566 858 543 c 6
 858 393 l 5
 858 193 l 5
 858 -24 l 6
 858 -44 855 -53 846 -53 c 4
 831 -53 822 -34 822 -12 c 6
 822 193 l 5
 822 393 l 5
689 62 m 6
 689 35 748 30 922 24 c 4
 933.697747311 23.5966294031 945 16 945 6 c 4
 945 -2 932 -3 925 -3 c 4
 885 -3 691 2 656 2 c 4
 621 2 613 -3 573 -3 c 0
 566 -3 553 -2 553 6 c 0
 553 16 565 20 576 24 c 0
 596 30 619 35 619 62 c 2
 619 272 l 10
 619 320 582 367 539 367 c 0
 505 367 477 360 452 340 c 0
 440 331 424 308 424 268 c 2
 424 62 l 2
 424 35 449 30 469 24 c 0
 480 20 492 16 492 6 c 0
 492 -2 480 -3 472 -3 c 0
 432 -3 425 2 390 2 c 0
 355 2 347 -3 307 -3 c 0
 300 -3 287 -2 287 6 c 0
 287 16 299 20 310 24 c 0
 330 30 354 35 354 62 c 2
 354 272 l 10
 354 320 317 367 274 367 c 0
 240 367 212 360 187 340 c 0
 175 331 160 309 160 268 c 2
 160 62 l 2
 160 35 183 30 203 24 c 0
 214 20 226 16 226 6 c 0
 226 -2 214 -3 206 -3 c 0
 166 -3 160 2 125 2 c 0
 90 2 84 -3 44 -3 c 0
 36 -3 24 -2 24 6 c 0
 24 16 36 20 47 24 c 0
 67 30 90 35 90 62 c 2
 90 277 l 2
 90 313 85 342 51 349 c 0
 46 350 43 356 43 362 c 0
 43 368 46 373 50 374 c 0
 102 386 127 407 161 430 c 1
 164 430 168 427 168 423 c 0
 168 414 163 378 163 359 c 0
 163 353 163.585786438 348.414213562 165 347 c 1
 192.06008696 372.233939322 244 414 323 414 c 0
 371 414 398.296250583 395.305942146 416 354 c 0
 422.303070553 339.293834572 426.71615746 340.950040998 445 358 c 0
 470.597379557 381.869942602 524 414 589 414 c 0
 654 414 689 345 689 275 c 6
 689 62 l 6
EndSplineSet
EndChar

StartChar: uniA774
Encoding: 42868 42868 3132
Width: 528
VWidth: 0
Flags: HW
AnchorPoint: "below_accent" 265 -100 basechar 0
AnchorPoint: "top_accent" 258 550 basechar 0
AnchorPoint: "top_left" 38 609 basechar 0
LayerCount: 3
Fore
SplineSet
572 393 m 5
 572 471 l 6
 572 504 563 516 540 530 c 4
 526 538 519 541 519 553 c 4
 519 562 559 572 585 572 c 4
 600 572 608 566 608 543 c 6
 608 393 l 5
 608 193 l 5
 608 -24 l 6
 608 -44 605 -53 596 -53 c 4
 581 -53 572 -34 572 -12 c 6
 572 193 l 5
 572 393 l 5
406 2 m 0
 370 2 363 -3 323 -3 c 0
 316 -3 303 -2 303 6 c 0
 303 16 315 20 326 24 c 0
 346 30 369 35 369 62 c 2
 369 272 l 2
 369 330 333 365 279 366 c 0
 245 366 212 360 187 340 c 0
 175 331 160 309 160 268 c 2
 160 62 l 2
 160 35 183 30 203 24 c 0
 214 20 226 16 226 6 c 0
 226 -2 214 -3 206 -3 c 0
 166 -3 160 2 125 2 c 0
 90 2 84 -3 44 -3 c 0
 36 -3 24 -2 24 6 c 0
 24 16 36 20 47 24 c 0
 67 30 90 35 90 62 c 2
 90 277 l 2
 90.1669921875 313 85 342 51 349 c 0
 46 350 43 356 43 362 c 0
 43 368 46 373 50 374 c 0
 102 386 127 407 161 430 c 1
 164 430 168 427 168 423 c 0
 168 414 163 378 163 359 c 0
 163 353 163.585786438 348.414213562 165 347 c 1
 211.5 391.5 263 414 326 414 c 0
 391 414 439 353 439 275 c 2
 439 62 l 2
 439 35 498 30 672 24 c 0
 683.697265625 23.5966796875 695 16 695 6 c 0
 695 -2 682 -3 675 -3 c 0
 635 -3 441 2 406 2 c 0
EndSplineSet
EndChar

StartChar: uniA775
Encoding: 42869 42869 3133
Width: 374
VWidth: 0
Flags: HW
AnchorPoint: "below_accent" 131 -100 basechar 0
AnchorPoint: "top_accent" 190 550 basechar 0
LayerCount: 3
Fore
SplineSet
272 393 m 1
 272 471 l 2
 272 504 263 516 240 530 c 0
 226 538 219 541 219 553 c 0
 219 562 259 572 285 572 c 0
 300 572 308 566 308 543 c 2
 308 393 l 1
 308 193 l 1
 308 -24 l 2
 308 -44 305 -53 296 -53 c 0
 281 -53 272 -34 272 -12 c 2
 272 193 l 1
 272 393 l 1
160 264 m 2
 160 67 l 1
 161 40 194 30 214 24 c 0
 225 20 237 16 237 6 c 0
 237 -2 224 -3 217 -3 c 0
 177 -3 165 2 130 2 c 0
 95 2 89 -3 49 -3 c 0
 42 -3 29 -2 29 6 c 0
 29 16 41 20 52 24 c 0
 72 30 89 35 90 62 c 1
 90 277 l 2
 90 313 82 342 49 349 c 0
 44 350 39 356 39 362 c 0
 39 368 44 373 48 374 c 0
 99 386 132 413 159 429 c 0
 160 429 160 430 161 430 c 0
 164 430 166 426 167 423 c 1
 167 416 166 380 164 348 c 0
 164 346 164 346 165 346 c 0
 169 346 182 365 189 371 c 0
 220 399 297 414 321 414 c 0
 349 414 369 400 369 382 c 0
 369 362 350 330 330 330 c 0
 313 330 290 348 270 348 c 0
 238 348 160 331 160 264 c 2
EndSplineSet
EndChar

StartChar: uniA776
Encoding: 42870 42870 3134
Width: 468
VWidth: 0
Flags: HW
LayerCount: 3
Fore
SplineSet
422 373 m 1
 422 451 l 2
 422 484 413 496 390 510 c 0
 376 518 369 521 369 533 c 0
 369 542 409 552 435 552 c 0
 450 552 458 546 458 523 c 2
 458 373 l 1
 458 173 l 1
 458 -44 l 2
 458 -64 455 -73 446 -73 c 0
 431 -73 422 -54 422 -32 c 2
 422 173 l 1
 422 373 l 1
289 302 m 0
 289 341 277 376 199 376 c 0
 161 376 152 360 152 338 c 2
 152 242 l 2
 152 218 182 217 185 217 c 0
 249 217 289 244 289 302 c 0
199 405 m 0
 300 405 364 378 364 303 c 0
 364 249 328 219 298 206 c 0
 295 205 286 204 289 200 c 0
 332 135 391 82 466 41 c 0
 487.936403775 29.0080992699 490 20 505 20 c 0
 513 20 533 20 533 13 c 0
 533 -5 503 -14 480 -14 c 0
 446 -14 387.048079024 7.35733286446 366 24 c 0
 323 58 294 68 247 145 c 0
 239 157 231 165 217 172 c 24
 197 182 175 186 162 187 c 0
 155 188 152 182 152 173 c 2
 153 63 l 2
 153 35 176 30 196 24 c 0
 207 20 219 16 219 6 c 0
 219 -3 204 -3 196 -3 c 0
 157 -3 153 2 118 2 c 0
 83 2 77 -3 37 -3 c 0
 30 -3 17 -2 17 6 c 0
 17 16 29 20 40 24 c 0
 60 30 82 35 82 63 c 2
 82 320 l 2
 82 371 67 369 36 376 c 0
 33 377 19 384 19 390 c 0
 19 396 27 402 32 402 c 0
 67 405 159 405 199 405 c 0
EndSplineSet
EndChar

StartChar: uniA777
Encoding: 42871 42871 3135
Width: 314
VWidth: 0
Flags: HW
AnchorPoint: "top_right" 249 600 basechar 0
AnchorPoint: "top_right1" 253 576 basechar 0
AnchorPoint: "cedilla" 205 8 basechar 0
AnchorPoint: "below_accent" 186 -100 basechar 0
AnchorPoint: "top_accent" 133 550 basechar 0
LayerCount: 3
Fore
SplineSet
352 393 m 5
 352 471 l 6
 352 504 343 516 320 530 c 4
 306 538 299 541 299 553 c 4
 299 562 339 572 365 572 c 4
 380 572 388 566 388 543 c 6
 388 393 l 5
 388 193 l 5
 388 -24 l 6
 388 -44 385 -53 376 -53 c 4
 361 -53 352 -34 352 -12 c 6
 352 193 l 5
 352 393 l 5
189 -14 m 0
 127 -14 85 22 85 105 c 10
 85 337 l 2
 85 349 78 352 47 352 c 0
 43 352 35 365 35 372 c 0
 35 375 38 378 40 379 c 0
 93 394 136 468 146 468 c 0
 152 468 164 467 163 458 c 10
 155 414 l 18
 153 405 167 400 180 400 c 10
 454 400 l 18
 459 400 464 388 464 376 c 0
 464 364 459 352 454 352 c 10
 195 352 l 18
 161 352 155 351 155 324 c 10
 155 135 l 18
 155 61 190 41 221 41 c 0
 260 41 280 48 296 60 c 0
 302 64 306 55 306 47 c 0
 306 36 250 -14 189 -14 c 0
EndSplineSet
EndChar

StartChar: uniA778
Encoding: 42872 42872 3136
Width: 323
VWidth: 0
Flags: HW
AnchorPoint: "cedilla" 199 8 basechar 0
AnchorPoint: "below_accent" 167 -100 basechar 0
AnchorPoint: "top_accent" 176 550 basechar 0
LayerCount: 3
Fore
SplineSet
282 328 m 1
 282 356 274 376 262 391 c 1
 252 401 227 414 187 414 c 0
 89 414 53 353 53 296 c 0
 53 247 101 208 149 174 c 0
 193 143 225 119 225 83 c 0
 225 43 203 13 155 13 c 0
 114 13 69 51 62 85 c 0
 61 90 54 92 47 92 c 0
 39 92 30 89 30 83 c 0
 31 60 36 36 43 22 c 0
 49 9 95 -14 149 -14 c 0
 260 -14 293 37 293 106 c 0
 293 172 228 212 198 231 c 0
 166 251 113 282 113 322 c 0
 113 362 138 388 176 388 c 0
 209 388 239 358.017851452 239 330 c 0
 239 252 130 58 60 -116 c 25
 88 -122 l 17
 154.069335938 48.4248046875 282 271 282 328 c 1
EndSplineSet
EndChar
